<?xml version="1.0" encoding="utf-8"?>
<!-- Generator: Adobe Illustrator 27.5.0, SVG Export Plug-In . SVG Version: 6.00 Build 0)  -->
<svg version="1.1" xmlns="http://www.w3.org/2000/svg" xmlns:xlink="http://www.w3.org/1999/xlink" x="0px" y="0px"
	 viewBox="0 0 500 500" style="enable-background:new 0 0 500 500;" xml:space="preserve">
<g id="BACKGROUND">
	<rect x="0.205" style="fill:#FFFFFF;" width="500" height="500"/>
</g>
<g id="OBJECTS">
	<path style="fill:#2B2B2B;" d="M437.965,450.368c-9.212-3.372-18.75-5.757-28.267-8.135c-12.347-3.086-24.694-6.172-37.042-9.258
		c-16.584-4.144-33.334-8.35-50.451-17.34c-27.069-18.943-54.62-37.2-82.789-54.935c0.012-1.043,1.068-1.749,2.055-2.086
		c0.987-0.338,2.102-0.551,2.77-1.352c0.529,1.164,1.905,1.65,3.157,1.91c1.336,0.276,2.698,0.433,4.062,0.466
		c0.672,0.017,1.365-0.001,1.984-0.262c0.911-0.385,1.565-1.318,1.616-2.306c1.773,0.317,3.649-1.179,3.734-2.978
		c0.033-0.716,0.029-1.721,0.739-1.81c0.272-0.035,0.531,0.111,0.802,0.157c0.916,0.155,1.593-0.798,2.407-1.245
		c0.935-0.512,2.175-0.381,2.978-1.081c0.858-0.748,0.86-2.145,1.678-2.936c0.428-0.413,1.05-0.628,1.363-1.134
		c0.398-0.644,0.14-1.48,0.254-2.229c0.271-1.798,2.472-2.567,3.425-4.116c0.695-1.13,0.645-2.594,0.187-3.839
		c-0.457-1.245-1.275-2.319-2.094-3.378c-0.133-1.152-0.266-2.305-0.399-3.458c-0.03-0.249-0.058-0.503-0.004-0.748
		c0.079-0.354,0.32-0.646,0.522-0.948c0.863-1.286,1.069-2.989,0.539-4.445c-0.085-0.235-0.19-0.473-0.178-0.723
		c0.01-0.247,0.135-0.474,0.254-0.692c0.622-1.139,1.174-2.512,0.64-3.696c-0.18-0.4-0.472-0.74-0.672-1.132
		c-0.379-0.748-0.387-1.622-0.558-2.443c-0.456-2.2-2.567-4.196-4.769-3.756c-0.447,0.09-0.919,0.271-1.342,0.098
		c-0.264-0.109-0.458-0.34-0.619-0.577c-0.405-0.594-0.679-1.274-1.118-1.844c-0.438-0.569-1.115-1.038-1.829-0.947
		c-0.335,0.043-0.648,0.205-0.985,0.228c-0.765,0.052-1.389-0.607-1.755-1.28s-0.618-1.441-1.199-1.941
		c-0.581-0.499-1.66-0.522-1.967,0.179c-0.441-1.466-1.41-2.765-2.69-3.604c0.787-0.722,0.865-1.982,0.473-2.974
		c-0.393-0.993-1.161-1.781-1.982-2.903c0.004-0.137,0.015-0.275,0.02-0.413c0,0,0.259-2.909,0.291-5.092
		c0.764-9.693,2.84-19.344,6.514-28.272c3.971-9.653,4.248-20.253,6.968-30.329c1.945-7.2,5.834-13.719,8.872-20.372
		c0.846,2.075,2.149,3.962,3.789,5.489c0.46,0.429,1.03,0.856,1.653,0.765c0.947-0.138,1.298-1.292,1.505-2.226
		c1.119-5.059,4.312-10.005,9.226-11.645c1.268-0.423,2.677-0.652,3.643-1.575c0.705-0.674,1.064-1.622,1.581-2.449
		c1.289-2.064,3.524-3.337,5.112-5.182c2.47-2.867,3.15-7.159,1.932-10.368c1.786-2.678,3.652-5.668,3.255-8.862
		c-0.168-1.347-0.738-2.636-0.761-3.994c-0.041-2.517,1.775-4.677,2.317-7.135c0.807-3.663-1.285-7.346-1.306-11.096
		c-0.013-2.309,0.76-4.548,0.99-6.846c0.321-3.208-0.458-6.516-2.18-9.489c1.371-2.8,5.496-3.889,5.949-6.974
		c0.094-0.648,0.008-1.339,0.286-1.932c0.845-1.808,4.036-1.109,5.058-2.824c0.385-0.644,0.331-1.449,0.506-2.179
		c0.364-1.521,1.677-2.608,2.437-3.975c0.348-0.627,0.552-1.317,0.634-2.023c-0.109-4.873-4.052-7.785-4.052-7.785
		c0.832-5.067,1.456-10.297-0.14-15.143c-1.555-4.722-5.094-8.574-9.115-11.497c-5.929-4.309-13.1-6.886-20.414-7.337
		c-0.912-0.056-2.228,0.443-2.194,1.473c-2.638,0.593-5.131,1.822-7.438,3.962c-0.722-0.494-1.788-0.399-2.41,0.215
		c-0.68,0.671-0.793,1.779-1.505,2.415c-0.295,0.264-0.67,0.424-0.968,0.683c-0.437,0.38-0.696,0.96-1.202,1.244
		c-0.291,0.163-0.633,0.208-0.965,0.243c-1.136,0.121-2.279,0.163-3.421,0.128c-0.865-0.027-1.761-0.093-2.569,0.219
		c-0.809,0.312-1.496,1.141-1.321,1.989c0.217,1.058,1.617,1.664,1.594,2.744c-0.014,0.729-0.676,1.245-1.17,1.782
		c-0.493,0.537-0.817,1.474-0.344,2.192c-0.776-0.518-1.996-0.09-2.279,0.798c-0.115,0.362-0.09,0.751-0.128,1.129
		c-0.113,1.163-0.866,2.244-1.918,2.753c-0.719,0.347-1.539,0.435-2.272,0.751c-1.492,0.643-2.484,2.292-2.354,3.911
		c0.145,1.816,1.513,3.288,2.943,4.416c1.431,1.129,2.564,2.471,4.015,3.92c2.789,2.79,3.964,6.185,5.006,9.69
		c0.278,0.933,0.508,1.94,0.211,2.867c-0.249,0.779-0.836,1.395-1.398,1.988c-2.921,3.082-5.658,6.337-8.378,9.738
		c-1.765-1.565-3.64-3.188-5.944-3.477c-0.449-1.365-1.846-2.199-3.229-2.589c-1.384-0.39-2.848-0.462-4.204-0.939
		c-2.329-0.82-4.22-2.793-6.665-3.137c-0.839-0.118-1.704-0.034-2.528-0.23c-0.73-0.173-1.389-0.556-2.077-0.852
		c-1.736-0.746-3.705-0.937-5.429-0.548c-0.086-4.317-0.183-8.703-1.471-12.824c-0.13-0.415-0.273-0.839-0.241-1.272
		c0.042-0.564,0.372-1.057,0.637-1.556c1.259-2.38,1.062-5.461-0.149-8.278c1.925-3.396,4.393-6.483,7.602-8.882
		c1.992,1.899,4.996,2.371,7.103,4.141c0.803,0.673,1.448,1.513,2.198,2.245c0.749,0.732,1.655,1.377,2.694,1.506
		c1.04,0.13,2.215-0.397,2.545-1.391c0.311-0.934-0.124-2.119,0.536-2.849c0.226-0.25,0.545-0.394,0.791-0.623
		c0.487-0.452,0.62-1.241,0.308-1.828c0.662-0.056,1.274-0.507,1.527-1.121c0.195-0.475,0.186-1.025,0.442-1.47
		c0.663-1.154,2.669-0.995,3.334-2.487c0.275-0.304,0.548-0.608,1.381-1.35c0.928,0.358,1.886,0.633,2.861,0.82
		c0.263,0.051,0.535,0.095,0.795,0.034c0.446-0.105,0.769-0.499,0.956-0.916c0.522-1.158,0.23-2.497,0.047-3.754
		c-0.356-2.458-0.233-5.042,0.776-7.312c0.907,0.073,1.742-0.6,2.145-1.416c0.404-0.815,0.468-1.751,0.525-2.659
		c0.23-3.706,0.462-7.412,1.065-10.678c3.692-2.467,7.527-5.629,8.126-10.029c0.186-1.365-0.04-2.917-1.097-3.801
		c-0.532-0.445-1.212-0.668-1.798-1.039c-0.917-0.577-1.567-1.484-2.255-2.321c-2.479-3.011-5.759-5.355-9.411-6.725
		c-1.291-0.484-2.631-0.851-3.858-1.48c-1.309-0.673-2.451-1.624-3.669-2.451c-6.428-4.358-15.611-4.831-21.841-0.194
		c-2.143,1.595-3.863,3.684-5.463,5.823c-1.328,1.774-2.596,3.61-3.522,5.623c-2.625,5.706-2.34,12.45-5.146,18.069
		c-1.036,2.077-2.525,4.329-1.884,6.943c-1.61,1.458-3.221,2.916-5.156,4.5c-0.577-0.751-1.169-1.516-1.96-2.037
		c-0.791-0.521-1.832-0.76-2.697-0.375c-0.851,0.379-1.414,1.294-2.315,1.533c-0.843,0.225-1.9-0.163-2.517,0.453
		c-0.4,0.398-0.413,1.057-0.77,1.493c-0.752,0.916-2.432,0.307-3.275,1.14c-0.49,0.483-0.548,1.336-1.136,1.694
		c-0.422,0.257-0.964,0.159-1.447,0.265c-1.242,0.272-1.756,1.727-2.609,4.115c-4.098-1.014-8.463,0.314-12.097,2.463
		c-3.634,2.149-6.73,5.079-10.075,7.655c-4.453,3.431-9.569,6.47-12.158,11.459c-1.119,2.157-1.686,4.549-2.347,6.887
		c-4.9,17.319-15.356,32.623-20.664,51.268c-3.096,6.343-7.73,11.824-10.977,18.091c-2.034,3.927-3.502,8.121-5.387,12.123
		c-2.228,4.732-5.027,9.171-7.818,13.595c-1.735,2.75-3.477,5.51-5.58,7.99c-1.148,1.354-2.636,4.044-3.944,5.244
		c1.124,1.388,2.508,2.565,4.562,4.489c-0.863,9.206-0.634,18.474-0.491,27.719c0.079,5.158,0.127,10.368-0.955,15.413
		c-1.182,5.515-3.695,10.731-4.326,16.336c-0.665,5.904,0.787,12.02-0.714,18.716c-4.157,12.856-7.194,26.074-9.137,39.489
		c-2.739,1.752-3.004,5.581-2.974,8.832l0.201,21.73c-14.101,25.83-24.508,55.252-29.304,85.125
		c10.311,4.531,21.58,6.867,32.842,6.807c7.548-0.04,15.272-1.122,22.53,0.952c3.213,0.918,6.28,2.443,9.601,2.813
		c4.982,0.555,9.834-1.544,15.532-3.013c1.94,5.017,8.225,6.825,13.593,6.487c5.368-0.338,10.684-2.122,16.023-1.468
		c4.589,0.562,9.126,2.91,13.624,1.842c2.152-0.511,4.18-1.792,6.384-1.623c2.205,0.17,4.19,1.789,6.392,1.584
		c1.766-0.164,3.208-1.465,4.895-2.014c4.249-1.38,8.369,2.171,12.682,3.333c7.58,2.041,15.126-3.458,22.968-3.807
		c6.179-0.275,12.133,2.677,18.319,2.615c4.317-0.043,8.488-1.553,12.787-1.956c5.572-0.523,11.125,0.823,16.677,1.527
		c13.523,1.715,27.208-0.379,41.018-0.683c4.966-2.485,10.881,0.249,16.43,0.028c4.637-0.185,8.977-2.463,13.605-2.807
		c3.994-0.298,7.931,0.858,11.855,1.663c5.584,1.144,11.33,1.586,17.005,1.05c6.115-0.577,12.081-2.278,18.195-2.861
		c14.289-1.362,28.812,3.422,42.933,0.848c4.066-0.741,8.004-2.081,12.061-2.871c8.541-1.661,17.501-0.864,24.931-4.069
		C463.103,461.443,450.471,454.944,437.965,450.368z M236.273,296.678c-0.79,1.495-1.3,3.222-0.957,4.879
		c-1.3,0.208-2.2,0.041-3.056,0.258c-0.854,0.216-1.651,0.933-1.658,1.816c-1.054-1.151-3.259-0.818-3.927,0.593
		c-0.19,0.401-0.287,0.88-0.642,1.146c-0.233,0.174-0.533,0.221-0.814,0.293c-1.599,0.41-2.867,1.882-3.036,3.525
		c-0.036,0.357-0.04,0.755-0.288,1.016c-0.402,0.424-1.106,0.186-1.681,0.287c-0.955,0.169-1.425,1.242-1.662,2.182
		c-0.237,0.939-0.495,2.02-1.357,2.462c-0.438,0.223-0.954,0.231-1.415,0.399c-1.281,0.466-1.781,2.323-0.908,3.37
		c-0.546,0.639-1.443,0.812-2.224,1.121c-0.782,0.309-1.591,0.983-1.464,1.814c-0.586-0.332-1.195-0.672-1.865-0.731
		c-0.67-0.058-1.422,0.247-1.666,0.874c-0.243,0.624,0.007,1.492-0.545,1.871c-0.177,0.122-0.399,0.154-0.604,0.222
		c-0.787,0.266-1.295,1.173-1.11,1.983c-0.273-1.938-2.383-2.484-2.95-3.894c-0.409-1.017,0.02-2.401-0.819-3.108
		c-0.412-0.348-1.006-0.391-1.457-0.686c-1.582-1.037-0.234-3.938-1.63-5.215c-0.425-0.387-1.035-0.538-1.424-0.962
		c-0.779-0.848-0.272-2.185-0.239-3.337c0.028-1.011-0.375-2.026-1.089-2.742c-0.33-0.332-0.735-0.618-0.917-1.05
		c-0.251-0.599,0.001-1.274,0.121-1.913c0.233-1.24-0.075-2.573-0.83-3.584c-0.253-0.338-0.559-0.654-0.687-1.056
		c-0.225-0.706,0.153-1.446,0.282-2.176c0.182-1.033-0.175-2.146-0.924-2.88c-0.199-0.194-0.434-0.382-0.501-0.651
		c-0.064-0.253,0.038-0.515,0.135-0.757c0.48-1.198,0.844-2.713-0.033-3.66c-0.186-0.201-0.428-0.377-0.497-0.642
		c-0.108-0.415,0.252-0.785,0.53-1.11c1.004-1.178,1.187-2.987,0.439-4.341c9.385-7.929,17.432-15.227,23.001-24.317
		c5.57-9.092,8.455-20.245,5.871-30.588c1.368-2.016,1.957-3.559,1.512-4.823c1.101-0.535,1.691-1.937,1.305-3.098
		c-0.097-0.295-0.252-0.597-0.179-0.899c0.053-0.22,0.217-0.392,0.351-0.575c0.448-0.613,0.573-1.448,0.326-2.165
		c-0.144-0.42-0.409-0.81-0.425-1.254c-0.018-0.513,0.3-0.969,0.461-1.456c0.289-0.874,0.069-1.825-0.152-2.719
		c3.643-5.11,8.903-7.856,14.036-10.393c4.733-2.339,9.498-4.613,14.287-6.837c-0.659,6.969-2.264,14.274-3.812,21.583
		c-2.639,12.457-4.46,25.04-6.753,37.532c-1.223,6.714-0.346,13.588-0.058,20.378c0.286,6.789-0.124,13.946-3.668,19.744
		C238.125,293.85,237.062,295.183,236.273,296.678z"/>
</g>
</svg>
